<?xml version="1.0" standalone="no"?>
<!DOCTYPE svg PUBLIC "-//W3C//DTD SVG 20010904//EN"
 "http://www.w3.org/TR/2001/REC-SVG-20010904/DTD/svg10.dtd">
<svg version="1.0" xmlns="http://www.w3.org/2000/svg"
 width="700.000000pt" height="700.000000pt" viewBox="0 0 700.000000 700.000000"
 preserveAspectRatio="xMidYMid meet">
<metadata>
Created by potrace 1.11, written by Peter Selinger 2001-2013
</metadata>
<g transform="translate(0.000000,700.000000) scale(0.100000,-0.100000)"
fill="#000000" stroke="none">
<path d="M3323 6960 c-46 -11 -120 -36 -165 -58 -91 -42 -2246 -1318 -2343
-1387 -207 -146 -335 -366 -366 -628 -7 -62 -9 -542 -7 -1472 l3 -1380 22 -76
c61 -217 186 -402 343 -509 83 -56 2235 -1332 2316 -1373 131 -66 185 -77 379
-77 191 0 248 11 370 72 111 56 2269 1341 2342 1394 101 74 191 184 252 307
59 117 78 184 91 317 13 127 13 2667 0 2785 -12 113 -32 190 -72 280 -66 145
-183 285 -313 373 -69 46 -2229 1329 -2292 1361 -172 86 -376 112 -560 71z
m349 -159 c42 -11 100 -32 130 -47 29 -14 559 -326 1177 -693 991 -587 1133
-674 1198 -734 106 -101 183 -229 211 -353 l9 -40 -51 51 c-79 79 -170 95
-288 52 -39 -14 -477 -279 -1153 -697 -599 -370 -1117 -691 -1150 -713 -95
-64 -215 -191 -257 -272 -72 -141 -69 -60 -66 -1605 3 -1318 4 -1387 21 -1432
21 -52 96 -143 127 -153 45 -14 15 -25 -68 -25 -93 0 -206 23 -286 59 -49 21
-2228 1312 -2317 1372 -134 90 -247 255 -289 423 -19 77 -20 116 -20 1482 0
1552 -3 1478 65 1621 58 125 140 224 237 291 59 40 2219 1322 2288 1357 145
75 326 96 482 56z m746 -3780 l3 -103 27 6 c15 4 64 10 109 13 71 5 84 3 89
-11 7 -19 -32 -192 -51 -221 -10 -16 -24 -20 -86 -21 -165 -3 -299 -118 -299
-257 0 -26 4 -57 10 -67 14 -27 84 -48 180 -54 112 -8 178 -28 219 -68 41 -40
56 -69 70 -136 39 -186 -38 -415 -195 -582 l-64 -67 0 -105 c0 -68 -4 -110
-12 -120 -7 -8 -42 -32 -78 -53 -60 -34 -65 -36 -77 -19 -8 11 -13 50 -13 107
0 88 0 89 -22 83 -62 -19 -148 -28 -190 -22 -45 7 -48 9 -48 37 0 33 37 188
50 209 6 10 34 14 102 14 85 1 100 4 160 34 110 54 169 139 176 253 4 62 2 69
-24 98 -32 36 -79 50 -164 51 -75 0 -163 22 -205 51 -49 33 -85 109 -91 195
-13 154 61 343 186 477 l70 75 0 103 c0 57 4 110 9 118 13 21 124 90 141 88
12 -2 16 -23 18 -106z"/>
</g>
</svg>
